<?xml version="1.0" encoding="UTF-8" standalone="no"?>
<!DOCTYPE svg PUBLIC "-//W3C//DTD SVG 1.1//EN" "http://www.w3.org/Graphics/SVG/1.1/DTD/svg11.dtd">
<svg version="1.1" xmlns="http://www.w3.org/2000/svg" xmlns:xlink="http://www.w3.org/1999/xlink" preserveAspectRatio="xMidYMid meet" viewBox="0 0 16 16" width="16" height="16"><defs><path d="M2.84 0.65L2.91 0.66L2.98 0.68L3.05 0.71L3.13 0.74L3.22 0.77L3.31 0.8L3.4 0.83L3.5 0.88L3.59 0.94L3.67 1.02L3.75 1.12L3.82 1.24L3.89 1.37L3.96 1.51L4.03 1.66L4.1 1.82L4.89 4.6L15.4 4.6L15.43 4.6L15.46 4.6L15.48 4.61L15.5 4.61L15.51 4.62L15.53 4.63L15.55 4.65L15.57 4.67L15.6 4.7L15.64 4.73L15.68 4.75L15.72 4.77L15.77 4.79L15.81 4.81L15.85 4.83L15.87 4.85L15.89 4.87L15.9 4.9L15.9 4.93L15.91 4.95L15.93 4.97L15.94 4.99L15.96 5.01L15.97 5.02L15.99 5.04L16 5.07L16 5.1L16 5.3L13.62 12.24L13.62 12.27L13.61 12.3L13.59 12.34L13.57 12.36L13.54 12.39L13.52 12.41L13.49 12.42L13.45 12.43L13.42 12.44L13.39 12.44L13.35 12.45L13.32 12.46L13.29 12.48L13.26 12.5L13.22 12.51L13.19 12.53L13.16 12.53L13.12 12.54L6.38 12.54L6.34 12.54L6.31 12.54L6.28 12.53L6.25 12.53L6.21 12.52L6.18 12.51L6.15 12.49L6.11 12.47L6.08 12.44L6.05 12.41L6.03 12.37L6.01 12.34L5.99 12.31L5.97 12.27L5.95 12.24L5.94 12.21L5.91 12.17L5.88 12.14L3.1 2.02L3.07 1.93L3.04 1.85L3.01 1.79L2.98 1.73L2.96 1.69L2.93 1.66L2.92 1.64L2.91 1.63L2.91 1.63L2.9 1.62L2.89 1.61L2.88 1.6L2.86 1.58L2.83 1.57L2.8 1.55L2.77 1.54L2.74 1.53L2.71 1.53L0.62 1.53L0.59 1.53L0.55 1.53L0.5 1.52L0.46 1.52L0.42 1.51L0.38 1.5L0.35 1.48L0.33 1.46L0.33 1.43L0.32 1.39L0.31 1.36L0.3 1.33L0.28 1.29L0.27 1.26L0.25 1.23L0.24 1.2L0.23 1.16L0.23 1.13L0.23 1.09L0.23 1.05L0.23 1L0.24 0.96L0.24 0.91L0.26 0.86L0.27 0.81L0.3 0.77L0.33 0.73L0.36 0.7L0.39 0.68L0.43 0.66L0.46 0.65L0.49 0.64L0.52 0.64L0.56 0.63L0.59 0.63L0.62 0.63L2.71 0.63L2.77 0.64L2.84 0.65ZM6.87 11.64L12.83 11.64L14.81 5.69L5.29 5.69L6.87 11.64Z" id="d8CWUgLKy"></path><path d="M9.03 14.28C9.03 14.88 8.54 15.37 7.94 15.37C7.34 15.37 6.86 14.88 6.86 14.28C6.86 13.68 7.34 13.19 7.94 13.19C8.54 13.19 9.03 13.68 9.03 14.28Z" id="c1somh37TP"></path><path d="M12.28 14.28C12.28 14.88 11.8 15.37 11.2 15.37C10.6 15.37 10.11 14.88 10.11 14.28C10.11 13.68 10.6 13.19 11.2 13.19C11.8 13.19 12.28 13.68 12.28 14.28Z" id="h24coBn1x"></path></defs><g><g><path></path><g><use xlink:href="#d8CWUgLKy" opacity="1" fill="#181818" fill-opacity="1"></use><g><use xlink:href="#d8CWUgLKy" opacity="1" fill-opacity="0" stroke="#000000" stroke-width="1" stroke-opacity="0"></use></g></g><g><use xlink:href="#c1somh37TP" opacity="1" fill="#181818" fill-opacity="1"></use><g><use xlink:href="#c1somh37TP" opacity="1" fill-opacity="0" stroke="#000000" stroke-width="1" stroke-opacity="0"></use></g></g><g><use xlink:href="#h24coBn1x" opacity="1" fill="#181818" fill-opacity="1"></use><g><use xlink:href="#h24coBn1x" opacity="1" fill-opacity="0" stroke="#000000" stroke-width="1" stroke-opacity="0"></use></g></g></g></g></svg>